<?xml version="1.0" encoding="utf-8"?>
<svg width="198px" height="290px" viewBox="0 0 198 290" version="1.1" xmlns:xlink="http://www.w3.org/1999/xlink" xmlns="http://www.w3.org/2000/svg">
  <desc>Created with Lunacy</desc>
  <g id="♥" fill="#E89D9D">
    <path d="M140.906 107.406Q149.203 107.406 157.008 110.43Q164.813 113.453 170.789 119.57Q176.766 125.688 180.352 134.969Q183.938 144.25 183.938 156.906Q183.938 170.969 179.438 183.133Q174.938 195.297 167.625 205.984Q160.312 216.672 151.102 226.023Q141.891 235.375 132.469 243.883Q123.047 252.391 114.258 260.195Q105.469 268 99.1406 275.453L97.875 275.453Q91.5469 268 82.8281 260.195Q74.1094 252.391 64.6875 243.883Q55.2656 235.375 46.0547 226.023Q36.8437 216.672 29.5313 205.984Q22.2188 195.297 17.7188 183.133Q13.2188 170.969 13.2188 156.906Q13.2188 144.25 16.8047 134.969Q20.3906 125.688 26.3672 119.57Q32.3438 113.453 40.1484 110.43Q47.9531 107.406 56.25 107.406Q64.2656 107.406 70.6641 109.516Q77.0625 111.625 82.1953 115.211Q87.3281 118.797 91.1953 123.367Q95.0625 127.938 97.875 132.719L99.1406 132.719Q101.953 127.938 105.891 123.367Q109.828 118.797 114.961 115.211Q120.094 111.625 126.492 109.516Q132.891 107.406 140.906 107.406Z" />
  </g>
</svg>