<?xml version="1.0" encoding="utf-8"?>
<svg width="77px" height="30px" viewBox="0 0 77 30" version="1.1" xmlns:xlink="http://www.w3.org/1999/xlink" xmlns="http://www.w3.org/2000/svg">
  <desc>Created with Lunacy</desc>
  <g id="ABOUT">
    <path d="M44.2578 20.9727Q46.1914 18.8779 46.1914 14.9785Q46.1914 11.0684 44.2739 8.98438Q42.3564 6.90039 38.7363 6.90039Q35.1162 6.90039 33.1772 8.96826Q31.2383 11.0361 31.2383 14.957Q31.2383 18.8779 33.1719 20.9727Q35.1055 23.0674 38.7148 23.0674Q42.3242 23.0674 44.2578 20.9727ZM11.5908 22.8525L10.4521 19.1143L4.72656 19.1143L3.58789 22.8525L0 22.8525L5.54297 7.08301L9.61426 7.08301L15.1787 22.8525L11.5908 22.8525ZM17.1553 7.14746L22.043 7.14746Q25.3838 7.14746 26.8931 8.09814Q28.4023 9.04883 28.4023 11.1221Q28.4023 12.5293 27.7417 13.4316Q27.0811 14.334 25.9854 14.5166L25.9854 14.624Q27.4785 14.957 28.1392 15.8701Q28.7998 16.7832 28.7998 18.2979Q28.7998 20.4463 27.2476 21.6494Q25.6953 22.8525 23.0313 22.8525L17.1553 22.8525L17.1553 7.14746ZM62.2295 7.14746L62.2295 17.3096Q62.2295 19.0498 61.4507 20.3604Q60.6719 21.6709 59.2002 22.3691Q57.7285 23.0674 55.7197 23.0674Q52.6904 23.0674 51.0146 21.5151Q49.3389 19.9629 49.3389 17.2666L49.3389 7.14746L52.6582 7.14746L52.6582 16.7617Q52.6582 18.5771 53.3887 19.4258Q54.1191 20.2744 55.8057 20.2744Q57.4385 20.2744 58.1743 19.4204Q58.9102 18.5664 58.9102 16.7402L58.9102 7.14746L62.2295 7.14746ZM68.8037 22.8525L72.1338 22.8525L72.1338 9.91895L76.3984 9.91895L76.3984 7.14746L64.5391 7.14746L64.5391 9.91895L68.8037 9.91895L68.8037 22.8525ZM9.65723 16.3213Q8.07813 11.2402 7.87939 10.5742Q7.68066 9.9082 7.59473 9.52148Q7.24023 10.8965 5.56445 16.3213L9.65723 16.3213ZM35.7285 18.9424Q34.7295 17.6104 34.7295 14.9785Q34.7295 12.3467 35.7393 11.0093Q36.749 9.67188 38.7363 9.67188Q42.7002 9.67188 42.7002 14.9785Q42.7002 20.2744 38.7148 20.2744Q36.7275 20.2744 35.7285 18.9424ZM20.4854 13.3672L22.4189 13.3672Q23.7725 13.3672 24.3794 12.9482Q24.9863 12.5293 24.9863 11.5625Q24.9863 10.6602 24.3257 10.2681Q23.665 9.87598 22.2363 9.87598L20.4854 9.87598L20.4854 13.3672ZM20.4854 16.0098L20.4854 20.1025L22.6553 20.1025Q24.0303 20.1025 24.6855 19.5762Q25.3408 19.0498 25.3408 17.9648Q25.3408 16.0098 22.5479 16.0098L20.4854 16.0098Z" />
  </g>
</svg>