<?xml version="1.0" encoding="utf-8"?>
<svg width="68px" height="30px" viewBox="0 0 68 30" version="1.1" xmlns:xlink="http://www.w3.org/1999/xlink" xmlns="http://www.w3.org/2000/svg">
  <desc>Created with Lunacy</desc>
  <g id="HOME">
    <path d="M31.1309 20.9727Q33.0645 18.8779 33.0645 14.9785Q33.0645 11.0684 31.147 8.98438Q29.2295 6.90039 25.6094 6.90039Q21.9893 6.90039 20.0503 8.96826Q18.1113 11.0361 18.1113 14.957Q18.1113 18.8779 20.0449 20.9727Q21.9785 23.0674 25.5879 23.0674Q29.1973 23.0674 31.1309 20.9727ZM11.5264 22.8525L14.8457 22.8525L14.8457 7.14746L11.5264 7.14746L11.5264 13.3027L5.30664 13.3027L5.30664 7.14746L1.97656 7.14746L1.97656 22.8525L5.30664 22.8525L5.30664 16.0742L11.5264 16.0742L11.5264 22.8525ZM42.9688 22.8525L39.1875 10.5313L39.0908 10.5313Q39.2949 14.291 39.2949 15.5479L39.2949 22.8525L36.3193 22.8525L36.3193 7.14746L40.8525 7.14746L44.5693 19.1572L44.6338 19.1572L48.5762 7.14746L53.1094 7.14746L53.1094 22.8525L50.0049 22.8525L50.0049 15.4189Q50.0049 14.8926 50.021 14.2051Q50.0371 13.5176 50.166 10.5527L50.0693 10.5527L46.0195 22.8525L42.9688 22.8525ZM57.0625 22.8525L66.1074 22.8525L66.1074 20.1025L60.3926 20.1025L60.3926 16.0527L65.71 16.0527L65.71 13.3242L60.3926 13.3242L60.3926 9.87598L66.1074 9.87598L66.1074 7.14746L57.0625 7.14746L57.0625 22.8525ZM22.6016 18.9424Q21.6025 17.6104 21.6025 14.9785Q21.6025 12.3467 22.6123 11.0093Q23.6221 9.67188 25.6094 9.67188Q29.5732 9.67188 29.5732 14.9785Q29.5732 20.2744 25.5879 20.2744Q23.6006 20.2744 22.6016 18.9424Z" />
  </g>
</svg>