<?xml version="1.0" encoding="utf-8"?>
<svg width="1394px" height="140px" viewBox="0 0 1394 140" version="1.1" xmlns:xlink="http://www.w3.org/1999/xlink" xmlns="http://www.w3.org/2000/svg">
  <desc>Created with Lunacy</desc>
  <defs>
    <filter filterUnits="userSpaceOnUse" color-interpolation-filters="sRGB" id="filter_1">
      <feFlood flood-opacity="0" result="BackgroundImageFix" />
      <feColorMatrix in="SourceAlpha" type="matrix" values="0 0 0 0 0 0 0 0 0 0 0 0 0 0 0 0 0 0 127 0" />
      <feOffset dx="5" dy="5" />
      <feGaussianBlur stdDeviation="1" />
      <feColorMatrix type="matrix" values="0 0 0 0 0.9333333 0 0 0 0 0.7137255 0 0 0 0 0.7411765 0 0 0 1 0" />
      <feBlend mode="normal" in2="BackgroundImageFix" result="effect0_dropShadow" />
      <feBlend mode="normal" in="SourceGraphic" in2="effect0_dropShadow" result="shape" />
    </filter>
  </defs>
  <g id="Questionaire--Design">
    <g filter="url(#filter_1)">
      <g id="Questionaire" fill="#98517B">
        <path d="M10.98 66.439Q10.98 85.471 23.119 98.525Q35.258 111.579 53.802 111.579Q65.148 111.579 74.786 106.211Q83.692 111.335 87.657 113.592Q91.622 115.849 100.772 120.363Q109.922 124.877 116.083 126.951Q122.244 129.025 130.845 130.916Q139.446 132.807 147.132 132.807Q154.818 132.807 164.639 130.489Q174.46 128.171 179.218 125.731L177.754 122.315Q173.606 124.389 164.09 126.341Q154.574 128.293 147.132 128.293Q134.2 128.293 118.096 122.803Q104.554 118.167 79.544 103.039Q87.596 96.817 92.171 87.24Q96.746 77.663 96.746 66.439Q96.746 47.407 84.546 34.414Q72.346 21.421 53.802 21.421Q35.258 21.421 23.119 34.414Q10.98 47.407 10.98 66.439ZM17.324 66.439Q17.324 49.603 27.45 38.196Q37.576 26.789 53.802 26.789Q70.028 26.789 80.215 38.196Q90.402 49.603 90.402 66.439Q90.402 76.931 86.193 85.715Q81.984 94.499 74.42 99.867Q65.758 94.011 59.109 90.839Q52.46 87.667 45.872 87.667Q39.284 87.667 34.77 90.717L36.722 94.255Q40.138 92.303 45.628 92.303Q54.412 92.303 69.662 102.673Q62.586 106.211 53.802 106.211Q37.698 106.211 27.511 94.743Q17.324 83.275 17.324 66.439ZM281.21 37.525Q285.358 34.353 291.946 34.353Q301.828 34.353 309.392 38.013L311.466 33.499Q303.292 29.473 293.044 29.473Q282.796 29.473 277.001 34.109Q271.206 38.745 271.206 46.919Q271.206 55.093 277.428 61.315Q280.722 64.487 283.162 66.378Q285.602 68.269 291.763 72.539Q297.924 76.809 301.584 80.469Q306.83 85.593 306.83 91.693Q306.83 98.769 301.645 102.673Q296.46 106.577 287.188 106.577Q277.916 106.577 269.62 100.965L266.692 105.235Q274.866 111.579 287.005 111.579Q299.144 111.579 305.915 106.394Q312.686 101.209 312.686 91.083Q312.686 83.275 306.708 77.297Q303.414 74.125 301.096 72.295Q298.778 70.465 292.617 66.256Q286.456 62.047 282.552 58.265Q277.062 53.019 277.062 46.431Q277.062 40.697 281.21 37.525ZM468.114 111.335Q451.156 111.335 439.688 99.501Q428.22 87.667 428.22 70.526Q428.22 53.385 439.688 41.551Q451.156 29.717 468.114 29.717Q485.072 29.717 496.54 41.551Q508.008 53.385 508.008 70.526Q508.008 87.667 496.54 99.501Q485.072 111.335 468.114 111.335ZM532.408 30.449L532.408 110.115L538.02 110.115L538.02 53.141Q538.02 44.113 537.776 41.673L544.486 49.847L597.434 110.603L600.118 110.603L600.118 30.937L594.506 30.937L594.506 88.277Q594.506 96.817 594.75 99.745Q594.628 99.623 592.249 96.512Q589.87 93.401 587.064 90.229L535.092 30.449L532.408 30.449ZM633.302 82.665L621.956 110.115L616.222 110.115L649.406 30.449L652.7 30.449L686.128 110.115L679.906 110.115L668.438 82.665L633.302 82.665ZM737.124 110.115L737.124 31.303Q747.616 30.449 754.936 30.449Q766.16 30.449 773.48 36.244Q780.8 42.039 780.8 52.775Q780.8 59.973 776.652 66.073Q772.504 72.173 767.258 75.955Q781.776 95.231 785.192 99.013Q792.146 106.211 800.32 107.187L800.198 110.969Q793.366 110.847 789.096 108.956Q784.826 107.065 780.617 102.551Q776.408 98.037 762.134 78.273Q752.252 78.273 742.736 77.663L742.736 110.115L737.124 110.115ZM154.208 111.335Q170.678 111.335 178.73 101.941Q186.782 92.547 186.782 75.955L186.782 30.937L181.17 30.937L181.17 75.955Q181.17 106.333 154.208 106.333Q127.246 106.333 127.246 75.955L127.246 30.937L121.634 30.937L121.634 75.955Q121.634 92.547 129.686 101.941Q137.738 111.335 154.208 111.335ZM215.33 110.115L215.33 30.937L252.296 30.937L252.296 35.817L220.942 35.817L220.942 64.609L249.246 64.609L249.246 69.367L220.942 69.367L220.942 104.991L253.516 104.991L253.516 110.115L215.33 110.115ZM349.286 35.939L322.446 35.939L322.446 30.937L381.616 30.937L381.616 35.939L354.776 35.939L354.776 110.115L349.286 110.115L349.286 35.939ZM398.208 30.937L398.208 110.115L403.82 110.115L403.82 30.937L398.208 30.937ZM707.844 30.937L702.232 30.937L702.232 110.115L707.844 110.115L707.844 30.937ZM848.266 30.937L811.3 30.937L811.3 110.115L849.486 110.115L849.486 104.991L816.912 104.991L816.912 69.367L845.216 69.367L845.216 64.609L816.912 64.609L816.912 35.817L848.266 35.817L848.266 30.937ZM468.175 34.719Q453.474 34.719 443.775 45.089Q434.076 55.459 434.076 70.526Q434.076 85.593 443.775 95.902Q453.474 106.211 468.175 106.211Q482.876 106.211 492.514 95.902Q502.152 85.593 502.152 70.526Q502.152 55.459 492.514 45.089Q482.876 34.719 468.175 34.719ZM759.084 73.637Q763.842 73.637 769.332 67.293Q774.822 60.949 774.822 52.531Q774.822 44.113 769.088 39.721Q763.354 35.329 754.204 35.329Q749.324 35.329 742.736 35.817L742.736 73.027Q751.52 73.637 759.084 73.637ZM650.748 39.477Q648.918 44.967 647.454 48.627L635.254 77.907L666.486 77.907L654.408 48.749Q651.602 41.917 650.748 39.477Z" />
      </g>
    </g>
    <g filter="url(#filter_1)">
      <g id="Design" fill="#FFFFFF">
        <path d="M1020.04 34.536Q1006.5 22.031 986.37 22.031Q973.682 22.031 961.238 22.885L961.238 109.871Q976.854 111.213 989.176 111.213Q1007.96 111.213 1020.53 101.087Q1026.63 96.085 1030.11 87.728Q1033.58 79.371 1033.58 68.513Q1033.58 47.041 1020.04 34.536ZM1016.81 96.512Q1006.38 105.845 989.176 105.845Q975.024 105.845 967.094 104.869L967.094 28.009Q975.268 27.399 986.37 27.399Q1003.69 27.399 1015.47 38.501Q1027.24 49.603 1027.24 68.391Q1027.24 87.179 1016.81 96.512ZM1135.82 34.353Q1129.23 34.353 1125.08 37.525Q1120.94 40.697 1120.94 46.431Q1120.94 53.019 1126.43 58.265Q1130.33 62.047 1136.49 66.256Q1142.65 70.465 1144.97 72.295Q1147.29 74.125 1150.58 77.297Q1156.56 83.275 1156.56 91.083Q1156.56 101.209 1149.79 106.394Q1143.02 111.579 1130.88 111.579Q1118.74 111.579 1110.57 105.235L1113.49 100.965Q1121.79 106.577 1131.06 106.577Q1140.33 106.577 1145.52 102.673Q1150.7 98.769 1150.7 91.693Q1150.7 85.593 1145.46 80.469Q1141.8 76.809 1135.64 72.539Q1129.48 68.269 1127.04 66.378Q1124.6 64.487 1121.3 61.315Q1115.08 55.093 1115.08 46.919Q1115.08 38.745 1120.88 34.109Q1126.67 29.473 1136.92 29.473Q1147.17 29.473 1155.34 33.499L1153.27 38.013Q1145.7 34.353 1135.82 34.353ZM1246.96 34.719Q1233.42 34.719 1224.21 45.028Q1215 55.337 1215 70.343Q1215 85.349 1225.37 95.78Q1235.74 106.211 1249.83 106.211Q1263.92 106.211 1271.73 102.917L1271.73 70.343L1277.34 70.343L1277.34 105.479Q1267.82 111.335 1250.38 111.335Q1232.93 111.335 1220.98 99.501Q1209.02 87.667 1209.02 70.404Q1209.02 53.141 1219.82 41.429Q1230.61 29.717 1247.69 29.717Q1261.48 29.717 1274.66 33.987L1273.19 38.623Q1260.5 34.719 1246.96 34.719ZM1303.94 30.449L1303.94 110.115L1309.55 110.115L1309.55 53.141Q1309.55 44.113 1309.3 41.673L1316.01 49.847L1368.96 110.603L1371.65 110.603L1371.65 30.937L1366.03 30.937L1366.03 88.277Q1366.03 96.817 1366.28 99.745Q1366.16 99.623 1363.78 96.512Q1361.4 93.401 1358.59 90.229L1306.62 30.449L1303.94 30.449ZM1059.2 30.937L1059.2 110.115L1097.39 110.115L1097.39 104.991L1064.82 104.991L1064.82 69.367L1093.12 69.367L1093.12 64.609L1064.82 64.609L1064.82 35.817L1096.17 35.817L1096.17 30.937L1059.2 30.937ZM1179.01 30.937L1179.01 110.115L1184.62 110.115L1184.62 30.937L1179.01 30.937Z" />
      </g>
    </g>
  </g>
</svg>