<?xml version="1.0" encoding="utf-8"?>
<svg width="153px" height="30px" viewBox="0 0 153 30" version="1.1" xmlns:xlink="http://www.w3.org/1999/xlink" xmlns="http://www.w3.org/2000/svg">
  <desc>Created with Lunacy</desc>
  <g id="SIGNIN/UP">
    <path d="M11.2471 18.4912Q11.2471 20.6182 9.71631 21.8428Q8.18555 23.0674 5.45703 23.0674Q2.94336 23.0674 1.00977 22.1221L1.00977 19.0283Q2.59961 19.7373 3.70068 20.0273Q4.80176 20.3174 5.71484 20.3174Q6.81055 20.3174 7.396 19.8984Q7.98145 19.4795 7.98145 18.6523Q7.98145 18.1904 7.72363 17.8306Q7.46582 17.4707 6.96631 17.1377Q6.4668 16.8047 4.93066 16.0742Q3.49121 15.3975 2.77148 14.7744Q2.05176 14.1514 1.62207 13.3242Q1.19238 12.4971 1.19238 11.3906Q1.19238 9.30664 2.60498 8.11426Q4.01758 6.92188 6.50977 6.92188Q7.73438 6.92188 8.84619 7.21191Q9.95801 7.50195 11.1719 8.02832L10.0977 10.6172Q8.84082 10.1016 8.01904 9.89746Q7.19727 9.69336 6.40234 9.69336Q5.45703 9.69336 4.95215 10.1338Q4.44727 10.5742 4.44727 11.2832Q4.44727 11.7236 4.65137 12.0513Q4.85547 12.3789 5.30127 12.6851Q5.74707 12.9912 7.41211 13.7861Q9.61426 14.8389 10.4307 15.897Q11.2471 16.9551 11.2471 18.4912ZM33.5693 14.0332L27.3389 14.0332L27.3389 16.8047L30.3145 16.8047L30.3145 20.0811Q29.2402 20.2959 28.1982 20.2959Q26.2002 20.2959 25.1528 18.9478Q24.1055 17.5996 24.1055 15.043Q24.1055 12.5938 25.4053 11.1436Q26.7051 9.69336 28.8643 9.69336Q30.7227 9.69336 32.4414 10.5527L33.5479 7.88867Q31.3027 6.92188 28.8857 6.92188Q25.0293 6.92188 22.854 9.04883Q20.6787 11.1758 20.6787 14.9785Q20.6787 18.8887 22.5532 20.978Q24.4277 23.0674 27.9834 23.0674Q29.3799 23.0674 30.7173 22.8687Q32.0547 22.6699 33.5693 22.1758L33.5693 14.0332ZM14.0938 22.8525L14.0938 7.14746L17.4238 7.14746L17.4238 22.8525L14.0938 22.8525ZM51.2402 22.8525L47.0078 22.8525L40.1758 10.9717L40.0791 10.9717Q40.2832 14.1191 40.2832 15.4619L40.2832 22.8525L37.3076 22.8525L37.3076 7.14746L41.5078 7.14746L48.3291 18.9102L48.4043 18.9102Q48.2432 15.8486 48.2432 14.5811L48.2432 7.14746L51.2402 7.14746L51.2402 22.8525ZM55.1934 7.14746L55.1934 22.8525L58.5234 22.8525L58.5234 7.14746L55.1934 7.14746ZM76.4092 22.8525L72.1768 22.8525L65.3447 10.9717L65.248 10.9717Q65.4521 14.1191 65.4521 15.4619L65.4521 22.8525L62.4766 22.8525L62.4766 7.14746L66.6768 7.14746L73.498 18.9102L73.5732 18.9102Q73.4121 15.8486 73.4121 14.5811L73.4121 7.14746L76.4092 7.14746L76.4092 22.8525ZM81.5117 22.8525L87.3662 7.14746L84.3906 7.14746L78.5361 22.8525L81.5117 22.8525ZM102.233 7.14746L102.233 17.3096Q102.233 19.0498 101.455 20.3604Q100.676 21.6709 99.2041 22.3691Q97.7324 23.0674 95.7236 23.0674Q92.6943 23.0674 91.0186 21.5151Q89.3428 19.9629 89.3428 17.2666L89.3428 7.14746L92.6621 7.14746L92.6621 16.7617Q92.6621 18.5771 93.3926 19.4258Q94.123 20.2744 95.8096 20.2744Q97.4424 20.2744 98.1782 19.4204Q98.9141 18.5664 98.9141 16.7402L98.9141 7.14746L102.233 7.14746ZM115.344 15.9238Q116.929 14.5811 116.929 12.0459Q116.929 9.60742 115.441 8.37744Q113.953 7.14746 111.096 7.14746L106.079 7.14746L106.079 22.8525L109.409 22.8525L109.409 17.2666L110.838 17.2666Q113.76 17.2666 115.344 15.9238ZM110.505 14.5381L109.409 14.5381L109.409 9.87598L110.924 9.87598Q112.288 9.87598 112.927 10.4346Q113.566 10.9932 113.566 12.1641Q113.566 13.3242 112.804 13.9312Q112.041 14.5381 110.505 14.5381Z" />
  </g>
</svg>